<?xml version="1.0" encoding="utf-8"?>
<!-- Generator: Adobe Illustrator 25.0.1, SVG Export Plug-In . SVG Version: 6.00 Build 0)  -->
<svg version="1.0" id="Layer_1" xmlns="http://www.w3.org/2000/svg" xmlns:xlink="http://www.w3.org/1999/xlink" x="0px" y="0px"
	 viewBox="0 0 904.4 583.1" style="enable-background:new 0 0 904.4 583.1;" xml:space="preserve">
<style type="text/css">
	.st0{fill-rule:evenodd;clip-rule:evenodd;fill:#0072CE;}
	.st1{clip-path:url(#SVGID_2_);}
	.st2{fill-rule:evenodd;clip-rule:evenodd;}
</style>
<path class="st0" d="M202.7,260.5c0-0.5-0.5-0.9-1-0.8c0,0,0,0,0,0l-9.7-1.4h-0.3h-13.5c-0.8-6.3-3.2-16.9-7.8-23
	c-2.5-3.4-5.5-5.1-8.7-5.1c-2,0-4,0.7-5.6,1.9c-1.6-1-3.6-1.4-5.5-1.3c-9.2,0.9-12,14.4-12.6,27.5c-8,0-16.1,0.1-24.1,0.3
	c-0.6,0-1.1,0.4-1.1,1c-0.2,3.7-1.1,18.1-2.3,40.3c-1.3,23.5-2,36.3-2.2,39.7c0,0.5,0.4,0.9,0.9,1l38.7,5.9l38.3,5.8
	c0.3,0,0.6,0,0.9-0.2l0,0L206,340c0.6-0.3,0.9-0.9,0.8-1.6L202.7,260.5z M161.7,233.8c1.9,0.1,3.7,1,4.8,2.5c4.7,5.1,7,15.9,8,22
	h-5.8c-1.3-8.1-4.6-18.4-9.6-23.8C159.9,234,160.9,233.8,161.7,233.8L161.7,233.8z M156.4,236.9c4.4,4.5,7.4,13.9,8.6,21.4h-14.1
	C151.3,251.4,152.7,241.8,156.4,236.9L156.4,236.9z M139.8,309.6l-10.5,3.8c-1.8,0.7-2.1,1.6-0.6,2.1c2,0.5,4.1,0.4,6.1-0.3l5-1.8
	v5.3l-1,0.2c-5.2,0.9-10.6,0.4-15.7-1.3c-4.9-1.4-5.8-4.3-3.5-6c1.7-1.1,3.6-2,5.6-2.7l14.6-5.2V309.6z M151.1,234.4
	c0.8-0.1,1.7,0,2.4,0.4c-4.6,6.3-5.9,17.3-6.3,23.5h-5.5C142.4,243.5,145.7,234.9,151.1,234.4L151.1,234.4z M152,287v37.7l-10.2-3.2
	v-45c4.7,1,9.4,2.3,14,3.8c8.6,3,11.5,6.6,11.5,14.9c0,8.1-5,11.2-11.3,8.1v-15c0-1.8-0.3-3.4-2-3.9C152.8,284.1,152,285.2,152,287
	L152,287z M180.3,313.4c-1.2,1.5-4.2,2.6-4.2,2.6l-22.2,8v-5.9l16.4-5.8c1.8-0.7,2.1-1.6,0.6-2.1c-2-0.5-4.1-0.4-6.1,0.3l-10.9,3.8
	v-6.1l0.6-0.2c2.5-0.8,5-1.3,7.6-1.6c4.8-0.5,9.6,0.1,14.1,1.7C181,309.6,181.5,311.9,180.3,313.4L180.3,313.4z"/>
<g>
	<defs>
		<rect id="SVGID_1_" x="242.4" y="276.1" width="561.5" height="78.4"/>
	</defs>
	<clipPath id="SVGID_2_">
		<use xlink:href="#SVGID_1_"  style="overflow:visible;"/>
	</clipPath>
	<g class="st1">
		<path class="st2" d="M627.3,332.9l-2-5.9v5.9h-1v-7.3h1.3l2.1,6.2l2.1-6.2h1.3v7.3h-1V327l-2,5.9H627.3z M620.1,326.4h-2.4v-0.8
			h5.8v0.8H621v6.5h-1L620.1,326.4L620.1,326.4z M767.2,314.6c0.5,8.6,5.8,14.1,14.3,14.1c3.7,0,7.4-0.7,10.9-2l1.1,4.9
			c-3.9,1.5-8,2.2-12.1,2.1c-13.4,0-20.5-9-20.5-20.9c0-12.2,7-21.1,18.3-21.1s16.8,7.8,16.8,19.6v3.1L767.2,314.6z M767.2,309.5
			h22.8v-0.3c0-7.7-4.4-12.2-10.8-12.2C772,297,767.9,302.1,767.2,309.5L767.2,309.5z M761,297.2c-1.1-0.2-2.2-0.2-3.4-0.2
			c-5.4,0-9.7,3.1-9.7,12.5v23.5h-6.5v-40.1h6.3v5.4h0.1c2-4.3,5.4-6.3,10.6-6.3c1,0,2,0,2.9,0.2L761,297.2z M717.3,333.9
			c-11.6,0-18.8-8-18.8-21.1s7.2-20.9,18.8-20.9s18.8,7.8,18.8,20.9S728.8,333.9,717.3,333.9z M717.3,297c-8.4,0-12.3,6.5-12.3,15.8
			s4,16,12.3,16c8.4,0,12.3-6.6,12.3-16S725.7,297,717.3,297z M673.1,292.8h7.2v-10.1h6.5v10.1h9.4v5.1h-9.4v24
			c0,5.5,0.5,6.5,5.1,6.5c1.4,0,2.9-0.1,4.3-0.3v4.9c-2,0.3-4.1,0.5-6.1,0.5c-8.4,0-9.8-4-9.8-11.2v-24.4h-7.2L673.1,292.8z
			 M667.1,285.6c-3.8-1.5-7.9-2.3-12-2.3c-5.2,0-11,2-11,8.3c0,4.9,2.9,7.5,11.4,10.8c10.3,4,15.7,8,15.7,16.5
			c0,10.7-9.4,15-18.4,15c-5.6,0-11.1-1.2-16.2-3.4l1.7-5.7c4.6,2.2,9.6,3.4,14.7,3.5c6.6,0,11.6-2.9,11.6-9
			c0-5.5-4.8-8.4-13.1-11.7c-9.4-3.7-14-8.4-14-15.6c0-10,9.5-14.3,17.8-14.3c4.6-0.1,9.2,0.7,13.6,2.3L667.1,285.6z M348,291.6h9.9
			c0.1,0,0.2,0.1,0.2,0.2l9.2,26.6c0,0.1,0.1,0.1,0.1,0l10.4-26.7c0-0.1,0.1-0.2,0.2-0.1h8.9c0.1,0,0.1,0.1,0.1,0.1l-24.6,61.1
			c0,0.1-0.1,0.2-0.2,0.2h-8.2c-0.1,0-0.1,0-0.1-0.1c0,0,0,0,0-0.1l7.8-20.1c0-0.1,0-0.2,0-0.3l-14-40.6
			C347.8,291.7,347.8,291.7,348,291.6C347.9,291.6,347.9,291.6,348,291.6L348,291.6z M555.6,291.6c15.8,0,17.8,11,17.8,20.7
			s-2,20.7-17.8,20.7c-15.8,0-17.7-11.1-17.7-20.7S539.8,291.6,555.6,291.6L555.6,291.6z M561.6,324.3c1.4-2.2,2-6,2-12
			c0-7.1-0.9-11.2-2.9-13.1c-1.2-1.1-2.7-1.6-5.1-1.6c-2.4,0-3.9,0.5-5.1,1.6c-2,1.9-2.9,6-2.9,13.1v0c0,6,0.6,9.8,2,12
			c1.5,2.4,3.9,2.7,6,2.7S560.1,326.7,561.6,324.3L561.6,324.3z M596.6,291.6c15,0,17,11,17,20.6v20.5c0,0.1-0.1,0.2-0.2,0.2H604
			c-0.1,0-0.2-0.1-0.2-0.2c0,0,0-21.4,0-21.6c0-5.6-0.6-9.1-1.8-11.1c-1.4-2.2-3.5-2.5-5.4-2.5h-7.2c0,0-0.1,0-0.1,0.1v35.2
			c0,0.1-0.1,0.2-0.2,0.2h-9.4c-0.1,0-0.2-0.1-0.2-0.2v-41c0-0.1,0-0.1,0.1-0.2c0,0,0,0,0,0L596.6,291.6L596.6,291.6z M531.4,278.6
			c0.1,0,0.2,0.1,0.2,0.2l0,0v7.8c0,0.1,0,0.1-0.1,0.2c0,0,0,0,0,0h-9.4c-0.1,0-0.1,0-0.2-0.1c0,0,0,0,0,0v-7.8
			c0-0.1,0.1-0.2,0.2-0.2l0,0H531.4z M531.4,291.6c0.1,0,0.2,0.1,0.2,0.1c0,0,0,0,0,0v41c0,0.1-0.1,0.2-0.2,0.2h-9.4
			c-0.1,0-0.2-0.1-0.2-0.2v-41c0-0.1,0.1-0.2,0.2-0.2l0,0H531.4z M515.8,291.6c0.1,0,0.1,0,0.2,0.1c0,0,0,0,0,0v5.6
			c0,0.1-0.1,0.2-0.2,0.2c0,0-7.1,0-10.2,0c0,0-0.1,0-0.1,0.1v24.1c0,5.3,2.5,5.3,3.5,5.3h4.2c0.1,0,0.2,0.1,0.2,0.2c0,0,0,0,0,0
			v5.6c0,0.1-0.1,0.2-0.2,0.2l0,0h-6.8c-6.2,0-10.7-5.2-10.7-12.4v-35.8c0-0.1,0.1-0.2,0.2-0.2h9.4c0.1,0,0.2,0.1,0.2,0.2v6.8
			c0,0,0,0.1,0.1,0.1L515.8,291.6z M449.9,291.6c0.1,0,0.2,0,0.2,0.2v5.6c0,0.1-0.1,0.2-0.2,0.2c0,0-7.1,0-10.2,0c0,0-0.1,0-0.1,0.1
			v24.1c0,5.3,2.5,5.3,3.5,5.3h4.1c0.1,0,0.2,0.1,0.2,0.2v5.6c0,0.1-0.1,0.2-0.2,0.2h-6.8c-6.2,0-10.7-5.2-10.7-12.4v-35.8
			c0-0.1,0.1-0.2,0.2-0.2h9.4c0.1,0,0.2,0.1,0.2,0.2v6.8l0,0c0,0,0,0.1,0,0.1L449.9,291.6z M487.8,291.8v41c0,0.1-0.1,0.2-0.2,0.2
			c0,0,0,0,0,0h-9.4c-0.1,0-0.2-0.1-0.2-0.1c0,0,0,0,0,0v-35.2c0,0,0-0.1-0.1-0.1c0,0,0,0,0,0h-7.2c-1.9,0-4,0.3-5.4,2.7
			c-1.2,2.2-1.8,6-1.8,12v9c0,5.1,2,5.8,3.5,5.8h6.5c0.1,0,0.2,0.1,0.2,0.1c0,0,0,0,0,0v5.6c0,0.1-0.1,0.2-0.2,0.2h-9.2
			c-6.2,0-10.7-5.2-10.7-12.4v-8.4c0-9.6,1.9-20.6,17-20.6h16.8C487.8,291.6,487.9,291.7,487.8,291.8L487.8,291.8L487.8,291.8z
			 M410.5,301.3c4,0.3,7,1.6,8.9,4.1c2.3,2.8,3.5,6.8,3.5,11.8c0,13.8-8.6,15.9-13.7,15.9h-16.5c-0.1,0-0.2-0.1-0.2-0.1c0,0,0,0,0,0
			v-5.6c0-0.1,0.1-0.2,0.2-0.2H406c6.4,0,7.2-5.4,7.2-8.4v-1.3c0-4.8-2.2-7.9-5.7-8.1l-4.6-0.4c-7.4-0.5-12.4-6.4-12.4-14.4V294
			c0-10.2,6.3-15.3,15-15.3h14.2c0.1,0,0.2,0.1,0.2,0.2l0,0v5.6c0,0.1-0.1,0.2-0.1,0.2c0,0,0,0,0,0h-12.8c-4,0-7,1.8-7,8.4
			c0,5.7,2.6,7.6,6.1,7.9L410.5,301.3L410.5,301.3z M342.7,291.8v41c0,0.1,0,0.1-0.1,0.2c0,0,0,0,0,0h-9.4c-0.1,0-0.2,0-0.2-0.1
			c0,0,0,0,0,0v-35.2c0,0,0-0.1-0.1-0.1h-7.2c-1.9,0-4.1,0.3-5.4,2.7c-1.2,2.2-1.8,6-1.8,12v9c0,5.1,2,5.8,3.5,5.8h6.6
			c0.1,0,0.2,0.1,0.2,0.2c0,0,0,0,0,0v5.6c0,0.1-0.1,0.2-0.2,0.2h-9.1c-6.2,0-10.7-5.2-10.7-12.4v-8.4c0-9.6,1.9-20.6,17-20.6h16.8
			C342.6,291.6,342.7,291.7,342.7,291.8C342.7,291.8,342.7,291.8,342.7,291.8L342.7,291.8z M301.5,278.7c0.1,0,0.2,0.1,0.2,0.2l0,0
			v53.9c0,0.1-0.1,0.2-0.1,0.2c0,0,0,0,0,0h-9.4c-0.1,0-0.2-0.1-0.2-0.1c0,0,0,0,0,0v-54c0-0.1,0.1-0.2,0.2-0.2L301.5,278.7
			L301.5,278.7z M273.1,278.7c7.9,0,13,6.7,13,17c0,5.3-1.5,9.8-4.2,12.8c-2.2,2.6-5.4,4-8.8,4.1h-9.2c-0.1,0-0.2,0-0.2-0.1
			c0,0,0,0,0,0v-5.6c0-0.1,0.1-0.2,0.2-0.2h6.5c3.9,0,6.1-3.9,6.1-11s-2.2-11-6.1-11h-10.8c0,0-0.1,0-0.1,0.1v48.1
			c0,0.1-0.1,0.2-0.2,0.2l0,0h-9.5c-0.1,0-0.2-0.1-0.2-0.2v-53.9c0-0.1,0.1-0.2,0.2-0.2L273.1,278.7z"/>
	</g>
</g>
</svg>
