<?xml version="1.0" encoding="iso-8859-1"?>
<!-- Uploaded to: SVG Repo, www.svgrepo.com, Generator: SVG Repo Mixer Tools -->
<svg version="1.1" id="Layer_1" xmlns="http://www.w3.org/2000/svg" xmlns:xlink="http://www.w3.org/1999/xlink" 
	 viewBox="0 0 496.2 496.2" xml:space="preserve">
<path style="fill:#25B7D3;" d="M496.2,248.1C496.2,111.1,385.1,0,248.1,0S0,111.1,0,248.1s111.1,248.1,248.1,248.1
	S496.2,385.1,496.2,248.1z"/>
<rect x="40.5" y="192.5" width="415.3" height="80.1"/>
<polygon style="fill:#1E1C1D;" points="455.8,272.7 40.5,272.7 47.3,281.2 448.9,281.2 "/>
<rect x="40.5" y="192.5" style="fill:#232122;" width="208.1" height="80.1"/>
<polygon style="fill:#373131;" points="455.8,192.8 40.5,192.8 86.1,146.3 410.1,146.3 "/>
<polygon style="fill:#151412;" points="248.6,192.8 40.5,192.8 86.1,146.3 248.6,146.3 "/>
<path style="fill:#767676;" d="M422.9,234.4c0,6-4.9,10.9-10.9,10.9s-10.9-4.9-10.9-10.9s4.9-10.9,10.9-10.9
	C418,223.5,422.9,228.4,422.9,234.4z"/>
<path style="fill:#F2F2F2;" d="M421.9,234.4c0,5.4-4.4,9.8-9.8,9.8s-9.8-4.4-9.8-9.8c0-5.4,4.4-9.8,9.8-9.8
	C417.4,224.6,421.9,229,421.9,234.4z"/>
<g>
	<g>
		<path style="fill:#141314;" d="M420.6,239c0-3.1-6.2-8.5-6.2-8.5l4.3-3.1c-0.9-0.8-5.8,1.2-6.5,2c-0.5-0.6-5.6-3.2-6.6-2.3
			l4.5,3.6c0,0-6.5,5.8-6.5,8.8l8.7-7.2L420.6,239z"/>
	</g>
</g>
<rect x="40.4" y="229.2" style="fill:#ACACAC;" width="208.2" height="11"/>
<rect x="60.1" y="231.9" style="fill:#161415;" width="165.3" height="5.6"/>
<g>
	<path style="fill:#232323;" d="M314,262c0,0-9.1-24-32.8-23c0,0-7.3,0.5-15.2,3.8l-18.9,0.3v21.4L314,262z"/>
	<path style="fill:#232323;" d="M182.2,262c0,0,9.1-24,32.8-23c0,0,7.3,0.5,15.2,3.8l18.9,0.3v21.4L182.2,262z"/>
</g>
<g>
	<path style="fill:#151412;" d="M263.3,261.9h-16.6v59.6h30.8c0,0,4-0.7,9.6,4c0,0,23.2,26.8,32.1,24.2c0,0,10.6-5,12.3-19.9
		c1.7-14.9-3-37.1-12.6-58.3c0,0-5-15.2-17.2-21.9c0,0-18-8.2-26-1.5L263.3,261.9z"/>
	<path style="fill:#151412;" d="M232.9,261.9h16.6v59.6h-30.8c0,0-4-0.7-9.6,4c0,0-23.2,26.8-32.1,24.2c0,0-10.6-5-12.3-19.9
		s3-37.1,12.6-58.3c0,0,5-15.2,17.2-21.9c0,0,18-8.2,26-1.5L232.9,261.9z"/>
</g>
<circle style="fill:#070605;" cx="281.9" cy="270.8" r="5.2"/>
<path style="fill:#265E67;" d="M278.6,267.6h2.1l1.1,1.9l1.1-1.9h2.1l-2,3.1l2.1,3.3h-2l-1.2-2l-1.2,2h-2.2l2.2-3.3L278.6,267.6z"/>
<circle style="fill:#070605;" cx="292.5" cy="260.2" r="5.2"/>
<path style="fill:#AC782B;" d="M289.1,257.6h6.9l-2.5,3.7v2.6h-2v-2.6L289.1,257.6z"/>
<circle style="fill:#070605;" cx="303.2" cy="270.8" r="5.2"/>
<path style="fill:#B03738;" d="M300.7,267.6h3.7c0.6,0,1.1,0.1,1.4,0.4s0.5,0.7,0.5,1.1s-0.1,0.7-0.4,1c-0.2,0.2-0.4,0.3-0.7,0.4
	c0.5,0.1,0.8,0.3,1,0.6c0.2,0.3,0.3,0.6,0.3,1c0,0.3-0.1,0.6-0.2,0.9c-0.2,0.3-0.4,0.5-0.6,0.6s-0.4,0.2-0.7,0.2
	c-0.4,0.1-0.7,0.1-0.9,0.1h-3.4L300.7,267.6L300.7,267.6z"/>
<circle style="fill:#070605;" cx="292.5" cy="281.4" r="5.2"/>
<path style="fill:#256533;" d="M293.7,283h-2.2l-0.3,1h-2l2.4-6.3h2.1l2.4,6.3h-2L293.7,283z"/>
<circle style="fill:#767676;" cx="248.4" cy="252.7" r="7.8"/>
<circle style="fill:#F2F2F2;" cx="248.4" cy="252.7" r="7.1"/>
<g>
	<g>
		<path style="fill:#141314;" d="M254.6,256c0-2.2-4.5-6.1-4.5-6.1l3.1-2.2c-0.6-0.6-4.1,0.9-4.6,1.5c-0.3-0.5-4-2.3-4.7-1.7
			l3.2,2.6c0,0-4.6,4.2-4.6,6.3l6.2-5.2L254.6,256z"/>
	</g>
</g>
<g>
	<path id="SVGID_11_" style="fill:#383633;" d="M239.1,299.5c0,6.8-5.5,12.4-12.4,12.4c-6.8,0-12.4-5.5-12.4-12.4
		c0-6.8,5.5-12.4,12.4-12.4S239.1,292.6,239.1,299.5z"/>
</g>
<path style="fill:#151412;" d="M238.4,303.7c0.5-1.3,0.8-2.8,0.8-4.3c0-1.3-0.2-2.5-0.5-3.7h-6l-1.8-1.8v-6.2
	c-1.3-0.4-2.7-0.7-4.1-0.7c-1.4,0-2.7,0.2-3.9,0.6v6.1l-2,2h-6c-0.4,1.2-0.6,2.4-0.6,3.7c0,1.5,0.3,2.9,0.8,4.3h5.6l2.1,2.1v5.4
	c1.2,0.4,2.5,0.6,3.9,0.6s2.8-0.3,4.1-0.7v-5.5l1.9-1.9H238.4z"/>
<g>
	<path style="fill:#33312E;" d="M263.9,272.5c0,1.7-1.3,3-3,3s-3-1.3-3-3s1.3-3,3-3S263.9,270.8,263.9,272.5z"/>
	<path style="fill:#33312E;" d="M238.9,272.5c0,1.7-1.3,3-3,3s-3-1.3-3-3s1.3-3,3-3S238.9,270.8,238.9,272.5z"/>
</g>
<ellipse style="fill:#4D4D4D;" cx="270.6" cy="299" rx="12.1" ry="12"/>
<path style="fill:#151412;" d="M279.6,299c0,5-4.1,9-9,9c-5,0-9-4-9-9s4-9,9-9S279.6,294,279.6,299z"/>
<path style="fill:#4D4D4D;" d="M220.4,270.8c0,7.9-6.5,14.3-14.5,14.3s-14.5-6.4-14.5-14.3s6.5-14.3,14.5-14.3
	C213.9,256.4,220.4,262.9,220.4,270.8z"/>
<path style="fill:#151412;" d="M216.7,270.8c0,5.9-4.8,10.7-10.8,10.7s-10.8-4.8-10.8-10.7c0-5.9,4.8-10.7,10.8-10.7
	S216.7,264.9,216.7,270.8z"/>
</svg>